<svg xmlns="http://www.w3.org/2000/svg" version="1.1" xmlns:xlink="http://www.w3.org/1999/xlink" xmlns:svgjs="http://svgjs.dev/svgjs" width="2000" height="1252" viewBox="0 0 2000 1252"><g transform="matrix(1,0,0,1,-1.2121212121212466,-2.01935483870966)"><svg viewBox="0 0 396 248" data-background-color="#ffffff" preserveAspectRatio="xMidYMid meet" height="1252" width="2000" xmlns="http://www.w3.org/2000/svg" xmlns:xlink="http://www.w3.org/1999/xlink"><g id="tight-bounds" transform="matrix(1,0,0,1,0.2400000000000091,0.4000000000000057)"><svg viewBox="0 0 395.52 247.2" height="247.2" width="395.52"><g><svg></svg></g><g><svg viewBox="0 0 395.52 247.2" height="247.2" width="395.52"><mask id="00d55c8b-2561-4691-95df-355b4120acdc"><rect width="395.52" height="247.2" fill="white"></rect><g transform="matrix(1,0,0,1,97.96673763306198,37.08)" id="clone"><svg viewBox="0 0 199.58652473387602 173.04" height="173.04" width="199.58652473387602"><g><svg viewBox="0 0 199.58652473387602 173.04" height="173.04" width="199.58652473387602"><g><svg viewBox="0 0 199.58652473387602 173.04" height="173.04" width="199.58652473387602"><g><svg viewBox="0 0 199.58652473387602 173.04" height="173.04" width="199.58652473387602"><g id="SvgjsG4060"><svg viewBox="0 0 199.58652473387602 173.04" height="173.04" width="199.58652473387602" id="SvgjsSvg4059"><g><svg viewBox="0 0 199.58652473387602 173.04" height="173.04" width="199.58652473387602"><g transform="matrix(1,0,0,1,0,0)"><svg width="199.58652473387602" viewBox="-3.5 -37.85 47.05 40.93" height="173.04" data-palette-color="#000000"><path d="M29 0.08L28.2 0.08 20.03-19.93 12 0.03 11.15 0.03-0.5-34.85 6.4-34.85 12.48-14.63 19.75-34.85 20.6-34.85 27.98-14.7 33.7-34.85 40.55-34.85 29 0.08Z" opacity="1" transform="matrix(1,0,0,1,0,0)" fill="black" class="wordmark-text-0" id="SvgjsPath4058" stroke-width="5" stroke="black" stroke-linejoin="round"></path></svg></g></svg></g></svg></g></svg></g></svg></g></svg></g></svg></g></mask><g mask="url(#00d55c8b-2561-4691-95df-355b4120acdc)"><g><path d="M241.217 208.166h-3.873l-39.56-96.889-38.881 96.647h-4.116l-56.41-168.89h33.41l29.44 97.906 35.201-97.906h4.116l35.734 97.567 27.697-97.567h33.168z" fill="#000000" fill-rule="nonzero" stroke="none" stroke-width="1" stroke-linecap="butt" stroke-linejoin="miter" stroke-miterlimit="10" stroke-dasharray="" stroke-dashoffset="0" font-family="none" font-weight="none" font-size="none" text-anchor="none" style="mix-blend-mode: normal" data-fill-palette-color="tertiary"></path></g></g><g transform="matrix(1,0,0,1,97.96673763306198,37.08)"><svg viewBox="0 0 199.58652473387602 173.04" height="173.04" width="199.58652473387602"><g><svg viewBox="0 0 199.58652473387602 173.04" height="173.04" width="199.58652473387602"><g><svg viewBox="0 0 199.58652473387602 173.04" height="173.04" width="199.58652473387602"><g><svg viewBox="0 0 199.58652473387602 173.04" height="173.04" width="199.58652473387602"><g id="textblocktransform"><svg viewBox="0 0 199.58652473387602 173.04" height="173.04" width="199.58652473387602" id="textblock"><g><svg viewBox="0 0 199.58652473387602 173.04" height="173.04" width="199.58652473387602"><g transform="matrix(1,0,0,1,0,0)"><svg width="199.58652473387602" viewBox="-3.5 -37.85 47.05 40.93" height="173.04" data-palette-color="#000000"><path d="M29 0.08L28.2 0.08 20.03-19.93 12 0.03 11.15 0.03-0.5-34.85 6.4-34.85 12.48-14.63 19.75-34.85 20.6-34.85 27.98-14.7 33.7-34.85 40.55-34.85 29 0.08Z" opacity="1" transform="matrix(1,0,0,1,0,0)" fill="#000000" class="wordmark-text-0" data-fill-palette-color="primary" id="text-0"></path></svg></g></svg></g></svg></g></svg></g></svg></g></svg></g></svg></g></svg></g><defs></defs></svg><rect width="395.52" height="247.2" fill="none" stroke="none" visibility="hidden"></rect></g></svg></g></svg>